<?xml version="1.0" encoding="UTF-8"?>
<svg version="1.1" xmlns="http://www.w3.org/2000/svg" width="500" height="500">
<path d="M0 0 C4.97195847 1.57348575 8.8484784 4.36236804 13.1184082 7.30883789 C14.04537506 7.9368782 14.97234192 8.56491852 15.92739868 9.21199036 C18.88583712 11.22023216 21.83400988 13.2430151 24.7824707 15.26586914 C26.75841085 16.60858232 28.73496721 17.95038918 30.7121582 19.29125977 C54.77405747 35.65530844 54.77405747 35.65530844 58.3449707 42.70336914 C62.70246643 50.9952829 67.51956977 58.9677136 72.4074707 66.95336914 C73.55269575 68.82707041 74.69751991 70.70101417 75.84165955 72.57537842 C76.85179974 74.22940001 77.86395185 75.8821924 78.8762207 77.53491211 C80.4074707 80.07836914 80.4074707 80.07836914 81.4074707 82.07836914 C88.17616183 81.46918694 94.26595356 79.23984055 100.6574707 77.01586914 C102.80709669 76.2708862 104.95808165 75.52980959 107.1105957 74.79321289 C108.05580078 74.46442139 109.00100586 74.13562988 109.97485352 73.796875 C112.4074707 73.07836914 112.4074707 73.07836914 115.4074707 73.07836914 C115.81473389 73.86783936 116.22199707 74.65730957 116.64160156 75.47070312 C117.21273682 76.57744385 117.78387207 77.68418457 118.37231445 78.82446289 C118.68078308 79.42234619 118.98925171 80.02022949 119.30706787 80.63623047 C121.01247946 83.94020551 122.72129584 87.24235926 124.43603516 90.54150391 C125.12971682 91.87666838 125.82332076 93.21187325 126.5168457 94.54711914 C126.8591069 95.20602646 127.2013681 95.86493378 127.55400085 96.54380798 C129.40231317 100.11055121 131.21715794 103.68985804 132.9855957 107.29711914 C137.88336817 117.17853197 143.90841783 125.01953145 151.4074707 133.07836914 C152.97230328 134.80542519 154.53501839 136.53440375 156.0949707 138.26586914 C156.80008789 139.04575195 157.50520508 139.82563477 158.23168945 140.62915039 C160.66648189 143.36993111 163.05136759 146.14459739 165.4074707 148.95336914 C166.1499707 149.83766602 166.8924707 150.72196289 167.6574707 151.63305664 C169.28042785 153.90084945 170.11145129 155.32785538 170.4074707 158.07836914 C169.4074707 159.07836914 169.4074707 159.07836914 166.9364695 159.20256764 C165.26930739 159.20199806 165.26930739 159.20199806 163.56846523 159.20141697 C162.2915514 159.20340802 161.01463757 159.20539907 159.69902939 159.20745045 C158.26349968 159.20459685 156.82797015 159.20165124 155.3924408 159.19862366 C153.88190062 159.19905923 152.37136052 159.19993387 150.86082083 159.20121282 C146.69009461 159.2034606 142.51939382 159.19943266 138.34867084 159.19443476 C133.85853058 159.19013448 129.36839186 159.19157638 124.87825012 159.19233704 C117.09217423 159.19286254 109.30610668 159.18971299 101.52003288 159.1840992 C90.26254151 159.17598777 79.00505419 159.17336934 67.74756021 159.17211121 C49.48502483 159.16992012 31.2224939 159.16325852 12.95996094 159.15380859 C-4.78515602 159.14463593 -22.53027177 159.13755438 -40.27539062 159.13330078 C-41.36836828 159.13303806 -42.46134594 159.13277533 -43.58744413 159.13250465 C-49.07034357 159.13119965 -54.55324302 159.12993594 -60.03614247 159.12869275 C-105.55494116 159.11831838 -151.073735 159.10069854 -196.5925293 159.07836914 C-197.44414042 155.31819934 -197.72035166 153.4590194 -195.98120117 149.96923828 C-195.60330444 149.19395279 -195.22540771 148.4186673 -194.83605957 147.61988831 C-194.41538208 146.79278854 -193.99470459 145.96568878 -193.5612793 145.11352539 C-193.13254517 144.24376572 -192.70381104 143.37400604 -192.26208496 142.47789001 C-190.88514434 139.69225741 -189.48921346 136.91664637 -188.0925293 134.14086914 C-187.18240964 132.30751244 -186.27354219 130.47353355 -185.3659668 128.63891602 C-184.0337511 125.94625067 -182.69588259 123.2574478 -181.33628845 120.57849121 C-179.36188022 116.68758761 -177.44250458 112.81348364 -175.76269531 108.78540039 C-172.04626378 100.0592731 -172.04626378 100.0592731 -168.12524414 97.41357422 C-165.26541806 96.27912079 -162.54212385 95.57178541 -159.5300293 94.95336914 C-158.51158936 94.68645264 -157.49314941 94.41953613 -156.44384766 94.14453125 C-152.07635594 93.01411755 -147.70764579 92.07052275 -143.2565918 91.34008789 C-138.03309171 90.32598104 -134.74805471 89.58222081 -131.4284668 85.26196289 C-129.5819121 81.93260392 -128.17681052 78.44237694 -126.76782227 74.91040039 C-125.34947139 71.49268744 -123.7957667 68.14483206 -122.22143555 64.79711914 C-121.92357651 64.16350464 -121.62571747 63.52989014 -121.3188324 62.8770752 C-120.71289731 61.58899331 -120.10671071 60.3010297 -119.50027466 59.01318359 C-117.17057264 54.04753869 -114.88625103 49.06070244 -112.5925293 44.07836914 C-102.55702626 44.70722817 -92.63983645 45.73986973 -82.67456055 47.06079102 C-71.50384221 48.47630651 -61.56867541 48.10177355 -50.4675293 46.14086914 C-49.33959961 45.97780273 -48.21166992 45.81473633 -47.04956055 45.64672852 C-38.45394372 44.11359218 -34.60711964 41.10008545 -29.5925293 34.07836914 C-28.54945255 32.74410146 -27.50524092 31.41071994 -26.4597168 30.07836914 C-25.4602848 28.74656138 -24.4629323 27.41319089 -23.4675293 26.07836914 C-21.77429437 23.85306083 -20.07546193 21.63210121 -18.3762207 19.41137695 C-17.1591163 17.81944571 -15.94538992 16.22492752 -14.73461914 14.62817383 C-12.89607577 12.21911388 -11.0295581 9.83448672 -9.1550293 7.45336914 C-8.5883252 6.70055664 -8.02162109 5.94774414 -7.43774414 5.17211914 C-6.8919873 4.48891602 -6.34623047 3.80571289 -5.78393555 3.10180664 C-5.31157471 2.49256348 -4.83921387 1.88332031 -4.35253906 1.25561523 C-2.5925293 0.07836914 -2.5925293 0.07836914 0 0 Z M0.4074707 5.07836914 C-5.5325293 24.21836914 -11.4725293 43.35836914 -17.5925293 63.07836914 C-16.9325293 63.40836914 -16.2725293 63.73836914 -15.5925293 64.07836914 C-13.11986718 63.15183931 -10.76362518 62.1580903 -8.3659668 61.06274414 C-7.26761002 60.57194366 -7.26761002 60.57194366 -6.14706421 60.07122803 C-3.75039324 58.99786941 -1.35897893 57.91330491 1.0324707 56.82836914 C2.66859506 56.09274481 4.3049893 55.35772043 5.94165039 54.62329102 C10.7690182 52.45355852 15.58941894 50.26869944 20.4074707 48.07836914 C21.09587036 47.76552979 21.78427002 47.45269043 22.49353027 47.13037109 C29.80933034 43.80389229 37.11519053 40.45612189 44.4074707 37.07836914 C44.4074707 36.08836914 44.4074707 35.09836914 44.4074707 34.07836914 C42.40330522 32.47849387 40.45345323 31.10332284 38.30200195 29.72680664 C37.66695236 29.30847565 37.03190277 28.89014465 36.37760925 28.45913696 C34.33134619 27.11399247 32.27611559 25.7833483 30.2199707 24.45336914 C28.21969655 23.14668175 26.2213814 21.83704246 24.22335815 20.5269165 C22.9026812 19.66141772 21.58100668 18.7974392 20.2583313 17.93499756 C14.69003463 14.29550564 9.22997529 10.51462802 3.79296875 6.68237305 C1.74826561 4.98537105 1.74826561 4.98537105 0.4074707 5.07836914 Z M-8.5925293 15.07836914 C-10.69961961 17.61762372 -12.80261617 20.16024119 -14.9050293 22.70336914 C-15.53860352 23.46721924 -16.17217773 24.23106934 -16.82495117 25.01806641 C-19.87588332 28.7125306 -22.88496153 32.42102424 -25.76049805 36.25415039 C-26.24156006 36.89078613 -26.72262207 37.52742188 -27.21826172 38.18334961 C-28.11206584 39.37519429 -28.99445827 40.57571257 -29.86328125 41.78588867 C-32.76164662 45.63464157 -34.929509 47.00442771 -39.5925293 48.07836914 C-40.30634766 48.24876709 -41.02016602 48.41916504 -41.75561523 48.59472656 C-44.15442104 49.15770653 -46.55877121 49.68473702 -48.9675293 50.20336914 C-49.79897461 50.38512695 -50.63041992 50.56688477 -51.48706055 50.75415039 C-53.52158246 51.19847127 -55.55697008 51.63882491 -57.5925293 52.07836914 C-54.22249262 54.94437194 -50.78339804 56.28504777 -46.6394043 57.77758789 C-45.64907196 58.13745537 -45.64907196 58.13745537 -44.63873291 58.5045929 C-42.54225086 59.26476236 -40.44251103 60.01542883 -38.3425293 60.76586914 C-36.91522003 61.28152023 -35.488134 61.79778969 -34.0612793 62.31469727 C-30.5742519 63.57642406 -27.08424067 64.82965458 -23.5925293 66.07836914 C-21.82801457 63.43159705 -21.00132035 61.62373231 -20.06445312 58.65454102 C-19.78108597 57.76351685 -19.49771881 56.87249268 -19.20576477 55.95446777 C-18.75719368 54.5153302 -18.75719368 54.5153302 -18.29956055 53.04711914 C-17.98927414 52.05965698 -17.67898773 51.07219482 -17.35929871 50.05480957 C-16.70541917 47.96759021 -16.05414227 45.87955399 -15.40527344 43.79077148 C-14.40798117 40.58784942 -13.39620055 37.38974328 -12.38354492 34.19165039 C-11.75049234 32.16458472 -11.11830149 30.1372497 -10.48706055 28.10961914 C-10.02938042 26.67048157 -10.02938042 26.67048157 -9.56245422 25.20227051 C-9.28854355 24.31124634 -9.01463287 23.42022217 -8.73242188 22.50219727 C-8.48752518 21.71848755 -8.24262848 20.93477783 -7.99031067 20.12731934 C-7.38207899 17.890999 -7.38207899 17.890999 -8.5925293 15.07836914 Z M50.4074707 41.07836914 C50.06603027 41.81659912 49.72458984 42.5548291 49.37280273 43.31542969 C48.05635604 46.1602335 46.73907768 49.00464999 45.42098999 51.84869385 C44.83003489 53.12380913 44.23923418 54.39899599 43.64859009 55.67425537 C39.27876904 65.10564695 34.85412032 74.50811645 30.30444336 83.85449219 C29.91949707 84.65282471 29.53455078 85.45115723 29.13793945 86.27368164 C28.80173584 86.96478027 28.46553223 87.65587891 28.11914062 88.36791992 C27.27942155 90.07736045 27.27942155 90.07736045 27.4074707 92.07836914 C28.1187915 92.43141113 28.8301123 92.78445313 29.56298828 93.14819336 C32.78302783 94.74782421 36.00151272 96.35055873 39.2199707 97.95336914 C40.33952148 98.50895508 41.45907227 99.06454102 42.61254883 99.63696289 C43.68569336 100.17192383 44.75883789 100.70688477 45.86450195 101.25805664 C46.85426025 101.75031738 47.84401855 102.24257813 48.86376953 102.74975586 C51.4074707 104.07836914 51.4074707 104.07836914 54.4074707 106.07836914 C58.04066355 105.78820877 59.88457972 104.01411461 62.4465332 101.55102539 C63.19161133 100.84139648 63.93668945 100.13176758 64.7043457 99.40063477 C65.47262695 98.65491211 66.2409082 97.90918945 67.0324707 97.14086914 C67.80848633 96.39901367 68.58450195 95.6571582 69.3840332 94.89282227 C72.08136854 92.31021733 74.76685394 89.7189859 77.4074707 87.07836914 C77.06375296 83.21249774 74.80623008 80.0767835 72.87231445 76.80102539 C72.51537003 76.19383163 72.1584256 75.58663788 71.79066467 74.96104431 C70.64675694 73.01819569 69.49584237 71.07959881 68.3449707 69.14086914 C67.59779516 67.87224253 66.85104645 66.60336443 66.10473633 65.33422852 C63.8883669 61.57260839 61.65390742 57.8221044 59.4074707 54.07836914 C59.02568665 53.44211609 58.64390259 52.80586304 58.25054932 52.15032959 C57.14239437 50.30951507 56.02823274 48.47250878 54.91137695 46.63696289 C54.26112549 45.56631592 53.61087402 44.49566895 52.94091797 43.39257812 C52.43488037 42.62888916 51.92884277 41.8652002 51.4074707 41.07836914 C51.0774707 41.07836914 50.7474707 41.07836914 50.4074707 41.07836914 Z M44.4074707 41.07836914 C43.57948975 41.46992188 42.75150879 41.86147461 41.8984375 42.26489258 C37.96543049 44.12254502 34.03064704 45.97638038 30.0949707 47.82836914 C29.38049774 48.16484467 28.66602478 48.50132019 27.92990112 48.84799194 C20.08973782 52.53653189 12.23784427 56.18844188 4.3059082 59.67602539 C3.6783815 59.95217682 3.0508548 60.22832825 2.40431213 60.5128479 C-0.56772451 61.81789491 -3.54401863 63.11216063 -6.52539062 64.39575195 C-7.57750732 64.85433594 -8.62962402 65.31291992 -9.71362305 65.78540039 C-10.6358667 66.18218994 -11.55811035 66.57897949 -12.50830078 66.98779297 C-14.74740402 67.90048804 -14.74740402 67.90048804 -15.5925293 70.07836914 C-10.84325364 72.46539572 -6.0926524 74.84975599 -1.34082031 77.23168945 C0.27445302 78.04183556 1.8893661 78.85270036 3.50390625 79.66430664 C5.82888239 80.83288104 8.15515528 81.99883787 10.48168945 83.16430664 C11.19959152 83.52583832 11.91749359 83.88737 12.65715027 84.25985718 C16.19099654 86.02697648 19.70512372 87.68328187 23.4074707 89.07836914 C25.7388285 84.296146 28.06825258 79.51298734 30.39599609 74.72900391 C31.18584769 73.10635827 31.97619991 71.48395621 32.76708984 69.86181641 C35.32855013 64.60766352 37.87475606 59.34643464 40.4074707 54.07836914 C41.24979248 52.33547607 41.24979248 52.33547607 42.10913086 50.55737305 C42.57496582 49.57043457 43.04080078 48.58349609 43.52075195 47.56665039 C43.91689697 46.73302979 44.31304199 45.89940918 44.72119141 45.04052734 C45.06089966 44.06925903 45.06089966 44.06925903 45.4074707 43.07836914 C44.9124707 42.08836914 44.9124707 42.08836914 44.4074707 41.07836914 Z M-105.5925293 49.07836914 C-104.238761 52.70331536 -102.60884255 55.91731958 -100.6081543 59.22680664 C-99.70963745 60.71893677 -99.70963745 60.71893677 -98.79296875 62.24121094 C-98.14932373 63.30122314 -97.50567871 64.36123535 -96.8425293 65.45336914 C-96.18019287 66.55011963 -95.51785645 67.64687012 -94.83544922 68.77685547 C-93.10322249 71.64267929 -91.36761114 74.50638581 -89.62982178 77.36883545 C-87.960013 80.12080214 -86.29434139 82.87527342 -84.62768555 85.62915039 C-83.38722659 87.67498195 -82.14635832 89.72056539 -80.9050293 91.76586914 C-80.32978516 92.71445801 -79.75454102 93.66304687 -79.16186523 94.64038086 C-75.03163324 101.45981325 -75.03163324 101.45981325 -70.5925293 108.07836914 C-70.2625293 108.07836914 -69.9325293 108.07836914 -69.5925293 108.07836914 C-69.56726325 100.40625712 -69.54969807 92.73415574 -69.53759766 85.06201172 C-69.53255553 82.44970295 -69.52572204 79.83739703 -69.51708984 77.22509766 C-69.50501894 73.47956646 -69.49929994 69.73407242 -69.49487305 65.98852539 C-69.48971176 64.81250259 -69.48455048 63.6364798 -69.47923279 62.42481995 C-69.47915726 61.34377487 -69.47908173 60.2627298 -69.47900391 59.14892578 C-69.47678329 58.19184219 -69.47456268 57.23475861 -69.47227478 56.24867249 C-69.34940431 54.09919291 -69.34940431 54.09919291 -70.5925293 53.07836914 C-73.17846559 52.70466576 -75.75000524 52.38683882 -78.34643555 52.10571289 C-79.12188217 52.01834366 -79.8973288 51.93097443 -80.6962738 51.84095764 C-83.182088 51.56183699 -85.66852778 51.28879245 -88.1550293 51.01586914 C-89.83671448 50.82811681 -91.51835578 50.63997094 -93.19995117 50.45141602 C-97.33031445 49.98915949 -101.46124884 49.53235254 -105.5925293 49.07836914 Z M-110.5925293 52.07836914 C-112.89154042 56.56079865 -115.13787087 61.06598875 -117.35571289 65.58911133 C-118.18001174 67.24812259 -119.0189364 68.89994712 -119.87231445 70.54418945 C-127.94002507 86.09880811 -133.5925293 103.33975497 -133.5925293 121.07836914 C-113.22632232 119.72515701 -92.9123532 117.99366799 -72.5925293 116.07836914 C-72.5925293 112.71614707 -73.18138621 111.71716393 -74.8737793 108.88696289 C-75.37820557 108.03739014 -75.88263184 107.18781738 -76.40234375 106.3125 C-76.96010498 105.38961182 -77.51786621 104.46672363 -78.0925293 103.51586914 C-78.95527466 102.07256226 -78.95527466 102.07256226 -79.83544922 100.60009766 C-86.34208062 89.75282053 -92.98004647 78.9842062 -99.64575195 68.23413086 C-101.04558702 65.96497258 -102.43575686 63.69149717 -103.81665039 61.41088867 C-104.36641792 60.5065786 -104.36641792 60.5065786 -104.92729187 59.58399963 C-105.9590145 57.8857681 -106.98717018 56.18537107 -108.01513672 54.48486328 C-108.53567627 53.69072021 -109.05621582 52.89657715 -109.5925293 52.07836914 C-109.9225293 52.07836914 -110.2525293 52.07836914 -110.5925293 52.07836914 Z M-64.5925293 55.07836914 C-64.5925293 73.22836914 -64.5925293 91.37836914 -64.5925293 110.07836914 C-59.90382288 106.05947792 -55.42447761 102.07190706 -51.0925293 97.70336914 C-50.52356934 97.13247559 -49.95460937 96.56158203 -49.3684082 95.97338867 C-45.90343852 92.47270788 -42.59834579 88.88970568 -39.42456055 85.12133789 C-37.90575963 83.42766437 -36.35668583 81.84052051 -34.72924805 80.25415039 C-34.22280762 79.75995605 -33.71636719 79.26576172 -33.19458008 78.7565918 C-32.18527817 77.77930074 -31.16950619 76.80863809 -30.14672852 75.84545898 C-28.90617363 74.64487995 -27.7426934 73.36580418 -26.5925293 72.07836914 C-26.5925293 71.08836914 -26.5925293 70.09836914 -26.5925293 69.07836914 C-31.84279346 67.08245735 -37.09386266 65.0886842 -42.34570312 63.09692383 C-44.13368897 62.41848118 -45.92144998 61.73944568 -47.70898438 61.05981445 C-50.27244694 60.08528671 -52.83669997 59.11286605 -55.40112305 58.14086914 C-56.60737587 57.68151978 -56.60737587 57.68151978 -57.83799744 57.21289062 C-61.13012283 55.73421402 -61.13012283 55.73421402 -64.5925293 55.07836914 Z M-17.5925293 74.07836914 C-17.00651629 82.91673754 -15.83289629 91.57083939 -14.37768555 100.30493164 C-14.15951877 101.62817389 -13.94154045 102.95144722 -13.72373962 104.27474976 C-13.27065173 107.01991233 -12.81381673 109.76441932 -12.35449219 112.50854492 C-11.76617873 116.02651357 -11.18985967 119.54633517 -10.61649418 123.06676674 C-10.06510047 126.43905602 -9.50198232 129.80935984 -8.94018555 133.17993164 C-8.6322683 135.07662094 -8.6322683 135.07662094 -8.31813049 137.0116272 C-8.02288734 138.75516983 -8.02288734 138.75516983 -7.72167969 140.53393555 C-7.55148819 141.55919342 -7.38129669 142.58445129 -7.20594788 143.64077759 C-6.77371678 146.2392913 -6.77371678 146.2392913 -4.5925293 148.07836914 C-3.5311624 145.89485739 -2.46996158 143.71126528 -1.40893555 141.52758789 C-1.07763641 140.84575439 -0.74633728 140.1639209 -0.40499878 139.46142578 C2.51600741 133.44761454 5.42728313 127.42912036 8.33699036 121.40983582 C10.37577045 117.19623285 12.43250512 112.99229556 14.5090332 108.79711914 C15.32947224 107.1200977 16.14979785 105.44302077 16.9699707 103.76586914 C17.34500732 103.02232178 17.72004395 102.27877441 18.10644531 101.51269531 C19.85217147 97.96543835 19.85217147 97.96543835 20.421875 94.10546875 C18.77976535 90.82401594 15.66572781 89.77087596 12.4855957 88.25805664 C11.78859558 87.91332306 11.09159546 87.56858948 10.37347412 87.21340942 C8.14103425 86.11346737 5.89953292 85.03353934 3.6574707 83.95336914 C2.1620665 83.21893794 0.66726678 82.48327459 -0.8269043 81.74633789 C-6.35703394 79.03169978 -11.85560797 76.33595747 -17.5925293 74.07836914 Z M-24.5925293 75.07836914 C-26.32866121 76.83258576 -27.96518057 78.60232987 -29.5925293 80.45336914 C-33.24075704 84.52653936 -36.94405611 88.48968849 -40.8425293 92.32836914 C-43.69095683 95.14102364 -46.43066074 97.971953 -49.0300293 101.01586914 C-53.57321166 106.33445042 -58.60973875 111.17667283 -63.5925293 116.07836914 C-60.14821455 119.89456362 -56.21468462 122.42396558 -51.9050293 125.14086914 C-50.37368684 126.11858892 -48.84243953 127.09645775 -47.3112793 128.07446289 C-46.52881836 128.57187988 -45.74635742 129.06929687 -44.94018555 129.58178711 C-41.96137867 131.48071454 -38.99636034 133.40039117 -36.03295898 135.32324219 C-33.92488671 136.69049008 -31.81350501 138.0525165 -29.7019043 139.41430664 C-26.94943188 141.19232555 -24.21182472 142.99061435 -21.4831543 144.80493164 C-20.51381958 145.44374268 -20.51381958 145.44374268 -19.52490234 146.09545898 C-18.30592308 146.89919906 -17.09100617 147.7091449 -15.88085938 148.52612305 C-14.48988939 149.43841915 -13.04513859 150.26780889 -11.5925293 151.07836914 C-10.9325293 150.74836914 -10.2725293 150.41836914 -9.5925293 150.07836914 C-11.13800615 140.88988795 -12.68518405 131.70169529 -14.23453426 122.51386642 C-14.95390548 118.24758456 -15.6726904 113.98120564 -16.39013672 109.71459961 C-17.08253245 105.5970996 -17.77646655 101.47986156 -18.47146797 97.3628006 C-18.7363522 95.79202761 -19.000682 94.22116101 -19.26444817 92.65019989 C-19.63397855 90.44989917 -20.00547875 88.24993949 -20.37744141 86.05004883 C-20.58839951 84.7976239 -20.7993576 83.54519897 -21.01670837 82.25482178 C-21.45740025 79.82379362 -21.94670652 77.46069318 -22.5925293 75.07836914 C-23.2525293 75.07836914 -23.9125293 75.07836914 -24.5925293 75.07836914 Z M97.2199707 82.95336914 C96.10170898 83.31817383 94.98344727 83.68297852 93.83129883 84.05883789 C92.76975586 84.41333008 91.70821289 84.76782227 90.61450195 85.13305664 C89.639729 85.45773926 88.66495605 85.78242188 87.66064453 86.11694336 C85.24728496 86.85944881 85.24728496 86.85944881 84.4074707 89.07836914 C85.60919214 91.76474945 86.8750297 94.33163848 88.24731445 96.92993164 C88.64825821 97.70396332 89.04920197 98.477995 89.46229553 99.27548218 C90.74907004 101.7554021 92.04686209 104.22936631 93.3449707 106.70336914 C94.21744532 108.38007291 95.08919974 110.05715165 95.96020508 111.73461914 C98.10095 115.85360564 100.25159565 119.96728295 102.4074707 124.07836914 C109.20475393 123.51999825 115.7995518 122.55485077 122.4699707 121.14086914 C123.32268555 120.97135742 124.17540039 120.8018457 125.05395508 120.62719727 C126.26728516 120.37292969 126.26728516 120.37292969 127.50512695 120.11352539 C128.59579468 119.88741577 128.59579468 119.88741577 129.70849609 119.65673828 C131.62649597 119.22581078 131.62649597 119.22581078 132.4074707 117.07836914 C131.81333984 115.30338108 131.81333984 115.30338108 130.77685547 113.36303711 C130.39638565 112.6023996 130.01591583 111.84176208 129.62391663 111.05807495 C128.99277199 109.82675339 128.99277199 109.82675339 128.34887695 108.57055664 C127.92573715 107.72993683 127.50259735 106.88931702 127.06663513 106.02322388 C125.70851546 103.32944081 124.33939569 100.64141979 122.9699707 97.95336914 C122.04932091 96.13212234 121.12938942 94.31051224 120.21020508 92.48852539 C117.95095181 88.01420937 115.68181528 83.54503171 113.4074707 79.07836914 C107.60889859 79.07836914 102.67966995 81.11545058 97.2199707 82.95336914 Z M71.6574707 98.20336914 C70.94075195 98.86852539 70.2240332 99.53368164 69.4855957 100.21899414 C68.7843457 100.87641602 68.0830957 101.53383789 67.3605957 102.21118164 C66.72283203 102.80817871 66.08506836 103.40517578 65.42797852 104.02026367 C60.07124563 109.47667477 57.68506434 112.78371048 56.60668945 120.32836914 C56.48058792 121.10470703 56.35448639 121.88104492 56.2245636 122.6809082 C55.82965584 125.14423376 55.46254268 127.61083408 55.0949707 130.07836914 C54.83038745 131.7348904 54.5641266 133.39114464 54.29614258 135.04711914 C54.04398268 136.64063111 53.79328208 138.23437483 53.54418945 139.82836914 C53.42863205 140.56603516 53.31307465 141.30370117 53.1940155 142.0637207 C52.58411182 146.17483364 52.4074707 149.87977215 52.4074707 154.07836914 C67.9174707 154.07836914 83.4274707 154.07836914 99.4074707 154.07836914 C100.55388633 133.85976633 98.8570962 122.18189076 88.4074707 105.07836914 C87.56236397 103.59192908 86.72460629 102.10127631 85.89575195 100.60571289 C84.11537076 97.39986563 82.28400765 94.22923061 80.4074707 91.07836914 C77.51186798 91.07836914 73.67623927 96.30544235 71.6574707 98.20336914 Z M-149.2175293 97.45336914 C-150.38799805 97.77047852 -151.5584668 98.08758789 -152.7644043 98.41430664 C-153.87557617 98.72368164 -154.98674805 99.03305664 -156.1315918 99.35180664 C-157.66614014 99.77598877 -157.66614014 99.77598877 -159.23168945 100.20874023 C-161.75471144 100.83213561 -161.75471144 100.83213561 -162.5925293 103.07836914 C-161.51874023 103.81442383 -160.44495117 104.55047852 -159.33862305 105.30883789 C-157.90240131 106.29448026 -156.46620473 107.2801593 -155.0300293 108.26586914 C-154.32555664 108.74862305 -153.62108398 109.23137695 -152.89526367 109.72875977 C-151.84628906 110.44902344 -151.84628906 110.44902344 -150.77612305 111.18383789 C-149.72980713 111.90192627 -149.72980713 111.90192627 -148.66235352 112.63452148 C-146.64777891 114.03982866 -144.66926085 115.48697617 -142.69018555 116.94165039 C-139.94532775 119.26763772 -139.94532775 119.26763772 -137.5925293 119.07836914 C-135.6125293 106.70336914 -135.6125293 106.70336914 -133.5925293 94.07836914 C-138.96020267 94.07836914 -144.07489054 96.01662306 -149.2175293 97.45336914 Z M24.4074707 96.07836914 C17.5559956 110.19820356 10.77103441 124.345446 4.1574707 138.57836914 C3.87384674 139.18741089 3.59022278 139.79645264 3.29800415 140.4239502 C2.49401384 142.15160619 1.69286556 143.88058391 0.8918457 145.60961914 C0.20687012 147.08785156 0.20687012 147.08785156 -0.49194336 148.59594727 C-1.66302615 151.13083384 -1.66302615 151.13083384 -2.5925293 154.07836914 C13.9074707 154.07836914 30.4074707 154.07836914 47.4074707 154.07836914 C48.5624707 147.56086914 49.7174707 141.04336914 50.9074707 134.32836914 C51.45564453 131.25057129 51.45564453 131.25057129 52.01489258 128.1105957 C52.30227248 126.48010951 52.58939904 124.84957863 52.8762207 123.21899414 C53.02736328 122.37578613 53.17850586 121.53257812 53.33422852 120.66381836 C53.47634766 119.85219238 53.6184668 119.04056641 53.76489258 118.2043457 C53.88924683 117.50263245 54.01360107 116.80091919 54.14172363 116.07794189 C54.49529972 113.75370568 54.49529972 113.75370568 54.4074707 110.07836914 C50.45901326 108.07945781 46.50797634 106.08577029 42.55444336 104.09692383 C41.20931682 103.41932567 39.86491114 102.74029455 38.52124023 102.05981445 C36.59195786 101.08307076 34.66015853 100.11147637 32.7277832 99.14086914 C31.56520996 98.5543457 30.40263672 97.96782227 29.20483398 97.36352539 C26.61764891 95.93921304 26.61764891 95.93921304 24.4074707 96.07836914 Z M-168.5925293 105.07836914 C-176.50077892 121.31064727 -184.28147419 137.5654688 -191.5925293 154.07836914 C-179.0525293 154.07836914 -166.5125293 154.07836914 -153.5925293 154.07836914 C-151.4681543 149.87086914 -149.3437793 145.66336914 -147.1550293 141.32836914 C-146.15064819 139.34691895 -146.15064819 139.34691895 -145.12597656 137.32543945 C-144.33791626 135.75681152 -144.33791626 135.75681152 -143.53393555 134.15649414 C-142.72484741 132.55402832 -142.72484741 132.55402832 -141.89941406 130.91918945 C-140.83062992 128.59593663 -140.07947734 126.57364884 -139.5925293 124.07836914 C-153.26576769 112.02152828 -153.26576769 112.02152828 -168.5925293 105.07836914 Z M-83.16137695 120.52148438 C-84.25245758 120.61836044 -85.34353821 120.71523651 -86.46768188 120.81504822 C-88.21944229 120.97439598 -88.21944229 120.97439598 -90.0065918 121.13696289 C-91.21318451 121.24557144 -92.41977722 121.35417999 -93.66293335 121.46607971 C-96.20988269 121.69611778 -98.75672513 121.9273421 -101.3034668 122.15966797 C-105.20934176 122.51512403 -109.11574338 122.86432494 -113.0222168 123.21313477 C-115.49620966 123.43736345 -117.9701692 123.66196025 -120.4440918 123.88696289 C-121.61598053 123.9911705 -122.78786926 124.09537811 -123.99526978 124.20274353 C-125.08004608 124.30277176 -126.16482239 124.40279999 -127.2824707 124.50585938 C-128.23779694 124.59246323 -129.19312317 124.67906708 -130.17739868 124.76829529 C-132.73028471 125.01715133 -132.73028471 125.01715133 -135.5925293 126.07836914 C-137.2329413 128.74003283 -137.2329413 128.74003283 -138.72924805 132.04711914 C-139.15570366 132.94037903 -139.15570366 132.94037903 -139.59077454 133.85168457 C-140.49684266 135.75617587 -141.38826814 137.66714375 -142.2800293 139.57836914 C-142.89176398 140.86655521 -143.5043837 142.15432139 -144.11791992 143.44165039 C-147.10489789 148.60552581 -147.10489789 148.60552581 -148.5925293 154.07836914 C-140.88857634 154.33237789 -133.18570555 154.50722306 -125.47851562 154.62768555 C-122.85831353 154.67790892 -120.2383908 154.74610392 -117.61914062 154.83276367 C-113.84785098 154.9543951 -110.08026911 155.0108442 -106.30737305 155.05493164 C-104.55697975 155.13235092 -104.55697975 155.13235092 -102.77122498 155.21133423 C-96.47111496 155.26181672 -96.47111496 155.26181672 -91.36289978 151.95985413 C-89.55509553 149.40467623 -88.05944195 146.84071741 -86.5925293 144.07836914 C-85.52622452 142.41752694 -84.44855492 140.76386496 -83.35424805 139.12133789 C-82.32697539 137.50445489 -81.30222006 135.88596969 -80.2800293 134.26586914 C-79.49402344 133.03707031 -79.49402344 133.03707031 -78.69213867 131.78344727 C-78.18875977 130.98745117 -77.68538086 130.19145508 -77.16674805 129.37133789 C-76.49518677 128.31209106 -76.49518677 128.31209106 -75.81005859 127.23144531 C-74.49938367 124.91365061 -73.52874093 122.56830527 -72.5925293 120.07836914 C-76.14747598 120.03261839 -79.62096933 120.20401057 -83.16137695 120.52148438 Z M-66.5925293 121.07836914 C-71.62257548 128.13358677 -76.39187998 135.32290021 -81.0300293 142.64086914 C-81.66618164 143.63666992 -82.30233398 144.6324707 -82.95776367 145.65844727 C-83.55782227 146.60268555 -84.15788086 147.54692383 -84.77612305 148.51977539 C-85.31809326 149.3725708 -85.86006348 150.22536621 -86.41845703 151.10400391 C-87.67771525 152.83877492 -87.67771525 152.83877492 -87.5925293 154.07836914 C-63.8325293 154.07836914 -40.0725293 154.07836914 -15.5925293 154.07836914 C-19.32972394 151.08861343 -23.05201 148.33448714 -27.0300293 145.70336914 C-27.66183105 145.28418213 -28.29363281 144.86499512 -28.94458008 144.43310547 C-34.91745881 140.49015528 -40.93727227 136.62032299 -46.9675293 132.76586914 C-47.88203857 132.17950684 -48.79654785 131.59314453 -49.73876953 130.98901367 C-55.25325339 127.48020621 -60.83692846 124.17638691 -66.5925293 121.07836914 Z M131.31298828 122.49389648 C130.07186279 122.79763184 128.8307373 123.10136719 127.55200195 123.41430664 C126.89036545 123.57250885 126.22872894 123.73071106 125.54704285 123.89370728 C123.43491347 124.40164849 121.32763343 124.92723354 119.2199707 125.45336914 C117.78861386 125.80089423 116.35697569 126.14726276 114.92504883 126.49243164 C111.41506085 127.33889831 107.91218949 128.20908015 104.4074707 129.07836914 C104.4074707 137.32836914 104.4074707 145.57836914 104.4074707 154.07836914 C123.5474707 154.07836914 142.6874707 154.07836914 162.4074707 154.07836914 C158.81586282 149.28955863 155.61276522 145.05018402 151.5949707 140.76586914 C147.2826506 136.10178879 143.25625627 131.27547176 139.31762695 126.29321289 C136.6643786 123.21674701 135.45614488 121.93755309 131.31298828 122.49389648 Z " fill="#0D5CB6" transform="translate(263.592529296875,170.921630859375)"/>
<path d="M0 0 C3.09021333 1.03007111 3.83107276 1.75125623 6 4 C7.11506877 4.80367722 8.25510914 5.57351248 9.4140625 6.3125 C10.0838916 6.74248291 10.7537207 7.17246582 11.44384766 7.61547852 C12.16362793 8.07237061 12.8834082 8.5292627 13.625 9 C15.16670685 9.98821856 16.70837236 10.97650162 18.25 11.96484375 C19.03890625 12.46870605 19.8278125 12.97256836 20.640625 13.49169922 C24.30951308 15.83714526 27.96819589 18.19827075 31.625 20.5625 C32.31795166 21.01020752 33.01090332 21.45791504 33.72485352 21.91918945 C40.86403228 26.54169728 47.93778155 31.26101498 55 36 C51.5791435 38.07694859 51.5791435 38.07694859 49.18823242 37.75927734 C46.40799731 36.7945857 44.20892696 35.39020221 41.73828125 33.7890625 C40.70928711 33.12616211 39.68029297 32.46326172 38.62011719 31.78027344 C37.52860352 31.0690332 36.43708984 30.35779297 35.3125 29.625 C34.18552271 28.89569297 33.05824208 28.16685447 31.93066406 27.43847656 C29.6760566 25.98100654 27.42344905 24.52052012 25.17236328 23.05761719 C22.36960873 21.23973083 19.56038132 19.43276904 16.74609375 17.6328125 C15.24734998 16.67194651 13.74864854 15.7110145 12.25 14.75 C11.2432019 14.10732178 11.2432019 14.10732178 10.21606445 13.45166016 C3.11334346 8.87204463 3.11334346 8.87204463 0 6 C-0.3125 2.75 -0.3125 2.75 0 0 Z " fill="#0D5CB7" transform="translate(198,286)"/>
<path d="M0 0 C0.33 0 0.66 0 1 0 C1.125 5.75 1.125 5.75 0 8 C1.22106445 7.96447021 2.44212891 7.92894043 3.70019531 7.89233398 C8.23243961 7.76191883 12.7648574 7.63877503 17.29736328 7.51782227 C19.25868127 7.46446741 21.21994672 7.40914324 23.18115234 7.35180664 C26.00086134 7.26971385 28.82068368 7.19471519 31.640625 7.12109375 C32.51680481 7.09405869 33.39298462 7.06702362 34.29571533 7.03916931 C35.11626404 7.01907303 35.93681274 6.99897675 36.78222656 6.97827148 C37.50170471 6.95828598 38.22118286 6.93830048 38.96246338 6.91770935 C41.1076073 7.00434597 42.92241434 7.47767407 45 8 C46.58712459 8.1108507 48.1778453 8.17538956 49.76855469 8.20532227 C50.70922791 8.22526749 51.64990112 8.24521271 52.61907959 8.26576233 C53.62650208 8.28247482 54.63392456 8.29918732 55.671875 8.31640625 C57.22820648 8.3475779 57.22820648 8.3475779 58.815979 8.37937927 C62.12725258 8.44471408 65.43860482 8.50368517 68.75 8.5625 C70.99610185 8.60570049 73.24219578 8.64931527 75.48828125 8.69335938 C80.99210457 8.80037903 86.49600598 8.90217522 92 9 C89.35746891 11.64253109 87.44436576 11.23625334 83.84925842 11.24884033 C82.55561623 11.2380545 82.55561623 11.2380545 81.23583984 11.22705078 C80.32846573 11.22734283 79.42109161 11.22763489 78.48622131 11.22793579 C75.47769714 11.22653898 72.46941858 11.21096128 69.4609375 11.1953125 C67.37871435 11.19158362 65.29648945 11.18873606 63.21426392 11.18673706 C57.72659483 11.17909077 52.23903116 11.15943375 46.75140381 11.1373291 C41.15459621 11.11689209 35.55777163 11.10773994 29.9609375 11.09765625 C18.97391195 11.07618879 7.98696473 11.04204086 -3 11 C-4.09716797 7.24023438 -4.09716797 7.24023438 -3.22265625 5.078125 C-1.61132812 2.5390625 -1.61132812 2.5390625 0 0 Z " fill="#055CC2" transform="translate(72,318)"/>
<path d="M0 0 C2.29648357 2.89585905 4.04347557 5.8172031 5.6875 9.125 C6.12449219 9.99382812 6.56148438 10.86265625 7.01171875 11.7578125 C8 14 8 14 8 16 C8.99 16.33 9.98 16.66 11 17 C9.68 17.33 8.36 17.66 7 18 C7.06900513 19.15000488 7.06900513 19.15000488 7.1394043 20.32324219 C7.33862233 23.79810999 7.51332286 27.27379088 7.6875 30.75 C7.76033203 31.9565625 7.83316406 33.163125 7.90820312 34.40625 C7.99038086 36.14648438 7.99038086 36.14648438 8.07421875 37.921875 C8.13182373 38.99018555 8.18942871 40.05849609 8.2487793 41.15917969 C7.95635362 44.49839969 7.2959999 45.60381776 5 48 C2.86166382 48.48774719 2.86166382 48.48774719 0.36083984 48.4699707 C-0.57668121 48.47289627 -1.51420227 48.47582184 -2.48013306 48.47883606 C-3.99430313 48.45257393 -3.99430313 48.45257393 -5.5390625 48.42578125 C-6.5756601 48.42249313 -7.61225769 48.41920502 -8.68026733 48.41581726 C-10.87089312 48.40539219 -13.06149114 48.38543525 -15.25195312 48.35668945 C-18.61864246 48.31258329 -21.98461995 48.29525251 -25.3515625 48.28320312 C-27.47657287 48.26978106 -29.6015744 48.25485864 -31.7265625 48.23828125 C-32.74005768 48.23089432 -33.75355286 48.22350739 -34.79776001 48.21589661 C-35.72897675 48.20306137 -36.66019348 48.19022614 -37.61962891 48.17700195 C-38.44330963 48.16715775 -39.26699036 48.15731354 -40.1156311 48.14717102 C-42 48 -42 48 -43 47 C-43.35820896 39.71641791 -43.35820896 39.71641791 -41 35 C-41.33 38.63 -41.66 42.26 -42 46 C-26.49 46 -10.98 46 5 46 C5.28254587 23.85920292 5.28254587 23.85920292 -3 4 C-2.01 4 -1.02 4 0 4 C0 2.68 0 1.36 0 0 Z " fill="#135AAA" transform="translate(358,279)"/>
<path d="M0 0 C23.76 0 47.52 0 72 0 C71.67 0.99 71.34 1.98 71 3 C37.835 2.505 37.835 2.505 4 2 C4 2.66 4 3.32 4 4 C2.02 4 0.04 4 -2 4 C-1.34 2.68 -0.68 1.36 0 0 Z " fill="#1159A8" transform="translate(176,325)"/>
<path d="M0 0 C0.495 1.98 0.495 1.98 1 4 C1.66 4 2.32 4 3 4 C2.01 6.97 1.02 9.94 0 13 C17.49 13.33 34.98 13.66 53 14 C53 14.33 53 14.66 53 15 C20.99 15 -11.02 15 -44 15 C-44 14.67 -44 14.34 -44 14 C-31.46 14 -18.92 14 -6 14 C-5.34 12.02 -4.68 10.04 -4 8 C-3.32466564 6.52609508 -2.61984233 5.06502851 -1.875 3.625 C-1.52179688 2.93664062 -1.16859375 2.24828125 -0.8046875 1.5390625 C-0.53914063 1.03117187 -0.27359375 0.52328125 0 0 Z " fill="#195AA3" transform="translate(116,311)"/>
<path d="M0 0 C-0.33 0.99 -0.66 1.98 -1 3 C-0.61067144 5.14255793 -0.61067144 5.14255793 0 7 C-2.01822917 6.67447917 -4.03645833 6.34895833 -6.0546875 6.0234375 C-6.69664062 6.01570312 -7.33859375 6.00796875 -8 6 C-10.20631138 7.78953084 -10.20631138 7.78953084 -10.24050903 10.17666626 C-10.23606781 11.07823456 -10.23162659 11.97980286 -10.22705078 12.90869141 C-10.22689972 13.92959869 -10.22674866 14.95050598 -10.22659302 16.00234985 C-10.21627045 17.10759003 -10.20594788 18.2128302 -10.1953125 19.3515625 C-10.1924826 20.4807309 -10.18965271 21.60989929 -10.18673706 22.77328491 C-10.17551462 26.39062971 -10.15040622 30.00772966 -10.125 33.625 C-10.11497287 36.0729131 -10.10584656 38.52083007 -10.09765625 40.96875 C-10.07556857 46.97925064 -10.04207074 52.98960783 -10 59 C-11.98 59.495 -11.98 59.495 -14 60 C-13.67 59.34 -13.34 58.68 -13 58 C-12.90948931 56.30456409 -12.88245128 54.60556022 -12.88647461 52.90771484 C-12.88655014 51.84676605 -12.88662567 50.78581726 -12.88670349 49.69271851 C-12.89444542 47.96923691 -12.89444542 47.96923691 -12.90234375 46.2109375 C-12.90446617 44.45059677 -12.90446617 44.45059677 -12.90663147 42.6546936 C-12.91224311 38.89477015 -12.92479762 35.13490555 -12.9375 31.375 C-12.9425135 28.83073002 -12.94707667 26.28645912 -12.95117188 23.7421875 C-12.96221632 17.49477147 -12.97896582 11.24738994 -13 5 C-15.97 4.67 -18.94 4.34 -22 4 C-22 3.01 -22 2.02 -22 1 C-18.89590179 0.83204189 -15.79171114 0.66585677 -12.6875 0.5 C-11.80642578 0.45230469 -10.92535156 0.40460938 -10.01757812 0.35546875 C-8.74624023 0.28779297 -8.74624023 0.28779297 -7.44921875 0.21875 C-6.66893311 0.17685547 -5.88864746 0.13496094 -5.0847168 0.09179688 C-3.39117604 0.01722476 -1.69518179 0 0 0 Z " fill="#0F5FBD" transform="translate(206,220)"/>
<path d="M0 0 C0.33 0 0.66 0 1 0 C1 7.92 1 15.84 1 24 C20.47 23.67 39.94 23.34 60 23 C60 23.66 60 24.32 60 25 C56.67915144 26.99522339 54.25015319 27.2218503 50.40527344 27.13525391 C49.28441345 27.11508209 48.16355347 27.09491028 47.00872803 27.0741272 C45.20229828 27.02583267 45.20229828 27.02583267 43.359375 26.9765625 C42.12205627 26.95153656 40.88473755 26.92651062 39.60992432 26.90072632 C36.32834564 26.83249927 33.04713884 26.75530978 29.76586914 26.67376709 C26.41437959 26.59268921 23.06266713 26.52358424 19.7109375 26.453125 C13.14023085 26.31470863 6.57039619 26.15684172 0 26 C0 17.42 0 8.84 0 0 Z " fill="#145AA8" transform="translate(367,301)"/>
<path d="M0 0 C0.99 0.33 1.98 0.66 3 1 C2.67 1.99 2.34 2.98 2 4 C1.195625 4.28875 0.39125 4.5775 -0.4375 4.875 C-3.23489059 5.76602576 -3.23489059 5.76602576 -4.1875 8.5625 C-4.455625 9.366875 -4.72375 10.17125 -5 11 C-5.99 11.495 -5.99 11.495 -7 12 C-7.65213292 14.02463255 -7.65213292 14.02463255 -8 16 C-8.33 14.68 -8.66 13.36 -9 12 C-10.98 12 -12.96 12 -15 12 C-14.67 10.02 -14.34 8.04 -14 6 C-14.99 5.67 -15.98 5.34 -17 5 C-17 4.34 -17 3.68 -17 3 C-16.030625 3.04125 -15.06125 3.0825 -14.0625 3.125 C-9.579403 3.13416789 -5.29324021 2.26217577 -1 1 C-0.67 0.67 -0.34 0.34 0 0 Z " fill="#065DC5" transform="translate(252,234)"/>
<path d="M0 0 C3.3 0 6.6 0 10 0 C10.33 0.66 10.66 1.32 11 2 C9.68 2.33 8.36 2.66 7 3 C7 5.31 7 7.62 7 10 C6.01 10.33 5.02 10.66 4 11 C3.01 9.68 2.02 8.36 1 7 C0.67 7.66 0.34 8.32 0 9 C-1.32 9 -2.64 9 -4 9 C-4 8.01 -4 7.02 -4 6 C-3.34 6 -2.68 6 -2 6 C-1.34 4.02 -0.68 2.04 0 0 Z " fill="#065EC6" transform="translate(152,217)"/>
<path d="M0 0 C0 1.32 0 2.64 0 4 C-6.6 4.33 -13.2 4.66 -20 5 C-20.33 4.34 -20.66 3.68 -21 3 C-20.34 3 -19.68 3 -19 3 C-19 2.34 -19 1.68 -19 1 C-12.63849395 0.34513908 -6.39628979 -0.12068471 0 0 Z " fill="#095CBC" transform="translate(188,287)"/>
<path d="M0 0 C1.98 0 3.96 0 6 0 C6 0.99 6 1.98 6 3 C6.5775 3.103125 7.155 3.20625 7.75 3.3125 C10.32049158 4.09792798 11.93657284 5.30504197 14 7 C13.67 7.99 13.34 8.98 13 10 C8.60469719 9.51163302 6.9781 8.17023548 4 5 C1.86690808 3.76487921 1.86690808 3.76487921 0 3 C0 2.01 0 1.02 0 0 Z " fill="#0C5CB8" transform="translate(94,271)"/>
<path d="M0 0 C3 1 3 1 4.16796875 2.99609375 C4.50441406 3.80175781 4.84085937 4.60742188 5.1875 5.4375 C5.53167969 6.24058594 5.87585938 7.04367187 6.23046875 7.87109375 C7 10 7 10 7 12 C6.34 12 5.68 12 5 12 C5 11.01 5 10.02 5 9 C4.34 9 3.68 9 3 9 C3.99 11.97 4.98 14.94 6 18 C3.14397493 15.14397493 1.87842513 13.15388854 0.1875 9.5625 C-0.50279297 8.14130859 -0.50279297 8.14130859 -1.20703125 6.69140625 C-2 4 -2 4 -1.13671875 1.65234375 C-0.76160156 1.10707031 -0.38648438 0.56179688 0 0 Z " fill="#135DB1" transform="translate(346,258)"/>
<path d="M0 0 C0.99 0.33 1.98 0.66 3 1 C3.33 3.31 3.66 5.62 4 8 C2.68 8.33 1.36 8.66 0 9 C0 8.34 0 7.68 0 7 C-1.32 7 -2.64 7 -4 7 C-4 7.66 -4 8.32 -4 9 C-4.66 9 -5.32 9 -6 9 C-5.12467243 5.71752159 -4.49145848 3.49145848 -2.0625 1.0625 C-1.381875 0.711875 -0.70125 0.36125 0 0 Z " fill="#0761C7" transform="translate(257,178)"/>
<path d="M0 0 C0.495 0.99 0.495 0.99 1 2 C0.67 2.66 0.34 3.32 0 4 C-0.99 4 -1.98 4 -3 4 C-3 3.34 -3 2.68 -3 2 C-17.85 2 -32.7 2 -48 2 C-48 1.67 -48 1.34 -48 1 C-32.16 0.67 -16.32 0.34 0 0 Z " fill="#0A5CB9" transform="translate(310,325)"/>
<path d="M0 0 C0.33 0 0.66 0 1 0 C1.24915939 1.76813112 1.47366632 3.53974982 1.6875 5.3125 C1.81511719 6.29863281 1.94273437 7.28476562 2.07421875 8.30078125 C2 11 2 11 0.64453125 12.85546875 C-1 14 -1 14 -3 14 C-3 12.68 -3 11.36 -3 10 C-5.46326712 8.3553326 -5.46326712 8.3553326 -8 7 C-8 6.34 -8 5.68 -8 5 C-5.69 5.33 -3.38 5.66 -1 6 C-1.020625 5.195625 -1.04125 4.39125 -1.0625 3.5625 C-1 1 -1 1 0 0 Z " fill="#035FC6" transform="translate(128,284)"/>
<path d="M0 0 C-2.5654594 2.5654594 -4.47686668 2.54046087 -8 3 C-5.69 3.33 -3.38 3.66 -1 4 C-1 4.33 -1 4.66 -1 5 C-2.41377782 5.36552803 -3.83120576 5.71695495 -5.25 6.0625 C-6.03890625 6.25972656 -6.8278125 6.45695312 -7.640625 6.66015625 C-10.10394822 7.01497267 -11.65604132 6.76877544 -14 6 C-13.01 6 -12.02 6 -11 6 C-11 5.34 -11 4.68 -11 4 C-13.64 4 -16.28 4 -19 4 C-19 3.67 -19 3.34 -19 3 C-16.77228658 2.49356447 -14.54275924 1.9951038 -12.3125 1.5 C-10.45044922 1.08234375 -10.45044922 1.08234375 -8.55078125 0.65625 C-5.57601782 0.10645874 -3.00631398 -0.13795705 0 0 Z " fill="#165DB1" transform="translate(390,291)"/>
<path d="M0 0 C0.66 0.33 1.32 0.66 2 1 C1 3 1 3 -1.28515625 3.8515625 C-2.65994141 4.23441406 -2.65994141 4.23441406 -4.0625 4.625 C-4.98160156 4.88539063 -5.90070313 5.14578125 -6.84765625 5.4140625 C-7.55792969 5.60742188 -8.26820313 5.80078125 -9 6 C-9 6.66 -9 7.32 -9 8 C-7.68 8.33 -6.36 8.66 -5 9 C-9.455 10.485 -9.455 10.485 -14 12 C-13.67 11.01 -13.34 10.02 -13 9 C-12.01 9 -11.02 9 -10 9 C-11.65 8.67 -13.3 8.34 -15 8 C-11.96943208 5.55831021 -8.90981404 3.86972611 -5.375 2.25 C-4.41335938 1.80140625 -3.45171875 1.3528125 -2.4609375 0.890625 C-1.64882813 0.59671875 -0.83671875 0.3028125 0 0 Z " fill="#155FAD" transform="translate(268,225)"/>
<path d="M0 0 C0.66 0.33 1.32 0.66 2 1 C2.33 1.99 2.66 2.98 3 4 C6.96 3.34 10.92 2.68 15 2 C15 2.66 15 3.32 15 4 C14.43152344 4.12117187 13.86304688 4.24234375 13.27734375 4.3671875 C9.51741487 5.18319878 5.8657142 6.04182673 2.1875 7.1875 C-0.82753973 7.95603954 -2.16668629 8.13332549 -5 7 C-4.01 7 -3.02 7 -2 7 C-1.855625 6.030625 -1.71125 5.06125 -1.5625 4.0625 C-1 1 -1 1 0 0 Z " fill="#1162C4" transform="translate(243,230)"/>
<path d="M0 0 C0.93065133 2.60582371 1.14917407 3.64198224 0.0625 6.25 C-0.4634375 7.11625 -0.4634375 7.11625 -1 8 C-0.34 8 0.32 8 1 8 C1.33 7.01 1.66 6.02 2 5 C3.49341969 7.98683937 2.40648676 9.95160978 1.5625 13.125 C1.27503906 14.22070312 0.98757812 15.31640625 0.69140625 16.4453125 C0.46324219 17.28835938 0.23507813 18.13140625 0 19 C-0.33 19 -0.66 19 -1 19 C-1 15.7 -1 12.4 -1 9 C-2.98 9 -4.96 9 -7 9 C-6.21625 8.2575 -5.4325 7.515 -4.625 6.75 C-2.43495469 4.45566682 -1.17268614 2.87841142 0 0 Z " fill="#155BAB" transform="translate(134,252)"/>
<path d="M0 0 C0 0.66 0 1.32 0 2 C-1.32 2 -2.64 2 -4 2 C-2.93354885 3.29633621 -2.93354885 3.29633621 -0.4375 3.0625 C0.366875 3.041875 1.17125 3.02125 2 3 C-0.5654594 5.5654594 -2.47686668 5.54046087 -6 6 C-6.33 5.34 -6.66 4.68 -7 4 C-9.31 4 -11.62 4 -14 4 C-9.52281208 1.01520806 -5.36175907 0 0 0 Z " fill="#125DAF" transform="translate(127,261)"/>
<path d="M0 0 C1 3 1 3 1 6 C1.66 6.33 2.32 6.66 3 7 C2.01 8.98 1.02 10.96 0 13 C-0.33 11.68 -0.66 10.36 -1 9 C-1.66 9 -2.32 9 -3 9 C-3.33 10.32 -3.66 11.64 -4 13 C-4.33 12.34 -4.66 11.68 -5 11 C-4.00390625 8.3984375 -4.00390625 8.3984375 -2.5625 5.375 C-2.08941406 4.37210938 -1.61632812 3.36921875 -1.12890625 2.3359375 C-0.75636719 1.56507813 -0.38382812 0.79421875 0 0 Z " fill="#175EB0" transform="translate(308,214)"/>
<path d="M0 0 C0.33 0 0.66 0 1 0 C1.3396019 1.87387477 1.67138691 3.74916697 2 5.625 C2.185625 6.66914063 2.37125 7.71328125 2.5625 8.7890625 C2.98715797 11.90574865 3.07545206 14.85930812 3 18 C2.01 18 1.02 18 0 18 C-0.33 19.32 -0.66 20.64 -1 22 C-1 20.02 -1 18.04 -1 16 C-0.34 16 0.32 16 1 16 C0.835 15.030625 0.67 14.06125 0.5 13.0625 C-0.13396273 8.70512237 -0.0896672 4.39369296 0 0 Z " fill="#135AA8" transform="translate(252,287)"/>
<path d="M0 0 C2.93200474 2.85276137 5.64315404 5.65079784 8 9 C6.68 8.34 5.36 7.68 4 7 C3.67 8.32 3.34 9.64 3 11 C1.35 8.69 -0.3 6.38 -2 4 C-1.34 4 -0.68 4 0 4 C0 2.68 0 1.36 0 0 Z " fill="#135AAB" transform="translate(407,296)"/>
<path d="M0 0 C4.23429756 1.31061591 8.07407404 2.94356259 12 5 C9 6 9 6 6.8125 5.0625 C6.214375 4.711875 5.61625 4.36125 5 4 C5 4.99 5 5.98 5 7 C3.02 6.34 1.04 5.68 -1 5 C0.32 4.67 1.64 4.34 3 4 C3 3.34 3 2.68 3 2 C2.01 2 1.02 2 0 2 C0 1.34 0 0.68 0 0 Z " fill="#155AAA" transform="translate(299,267)"/>
<path d="M0 0 C4.35970831 1.34849837 8.31341438 3.04907846 12.375 5.125 C13.43460937 5.66382813 14.49421875 6.20265625 15.5859375 6.7578125 C16.38257813 7.16773438 17.17921875 7.57765625 18 8 C18 8.33 18 8.66 18 9 C15.69 8.67 13.38 8.34 11 8 C11 7.34 11 6.68 11 6 C8.36 5.34 5.72 4.68 3 4 C3 3.34 3 2.68 3 2 C2.01 1.67 1.02 1.34 0 1 C0 0.67 0 0.34 0 0 Z " fill="#165CA7" transform="translate(256,245)"/>
<path d="M0 0 C0.33 0.99 0.66 1.98 1 3 C0.67 3.66 0.34 4.32 0 5 C0.66 5 1.32 5 2 5 C1.42655063 7.86724686 1.1385485 8.8614515 -1 11 C-1 10.01 -1 9.02 -1 8 C-2.98 8.99 -2.98 8.99 -5 10 C-3.66511872 6.40608886 -2.03977277 3.24509304 0 0 Z " fill="#165BAD" transform="translate(179,310)"/>
<path d="M0 0 C1.98 0 3.96 0 6 0 C6 0.99 6 1.98 6 3 C6.66 3 7.32 3 8 3 C7.67 3.99 7.34 4.98 7 6 C4.0625 5.25 4.0625 5.25 1 4 C0.125 1.875 0.125 1.875 0 0 Z " fill="#045FC8" transform="translate(94,271)"/>
<path d="M0 0 C0.66 0 1.32 0 2 0 C2 0.66 2 1.32 2 2 C2.66 2 3.32 2 4 2 C4 3.65 4 5.3 4 7 C3.01 7.33 2.02 7.66 1 8 C-0.37562854 6.71034824 -1.70766393 5.37310707 -3 4 C-3 3.34 -3 2.68 -3 2 C-2.01 2 -1.02 2 0 2 C0 1.34 0 0.68 0 0 Z " fill="#0C5EBA" transform="translate(155,220)"/>
<path d="M0 0 C0.66 0 1.32 0 2 0 C2.04254356 1.99954746 2.04080783 4.00041636 2 6 C1.67 6.33 1.34 6.66 1 7 C0.76712992 8.68183948 0.58735834 10.3712416 0.4375 12.0625 C0.31181641 13.44115234 0.31181641 13.44115234 0.18359375 14.84765625 C0.12300781 15.55792969 0.06242188 16.26820313 0 17 C-0.33 17 -0.66 17 -1 17 C-2.51708428 5.47835991 -2.51708428 5.47835991 0 0 Z " fill="#145AAC" transform="translate(245,251)"/>
<path d="M0 0 C0.66 0 1.32 0 2 0 C2.17835515 4.54805635 1.99785435 7.8794254 0 12 C-0.99 12 -1.98 12 -3 12 C-2.01 8.04 -1.02 4.08 0 0 Z " fill="#035EC5" transform="translate(249,212)"/>
<path d="M0 0 C0.33 0.66 0.66 1.32 1 2 C0.67 2.66 0.34 3.32 0 4 C0.66 4 1.32 4 2 4 C2 3.34 2 2.68 2 2 C2.99 2.33 3.98 2.66 5 3 C3.35 4.98 1.7 6.96 0 9 C-1.32 7.68 -2.64 6.36 -4 5 C-2.68 3.35 -1.36 1.7 0 0 Z " fill="#145BAA" transform="translate(251,183)"/>
<path d="M0 0 C0.33 0 0.66 0 1 0 C0.67 3.3 0.34 6.6 0 10 C-1.32 10 -2.64 10 -4 10 C-3.29445932 6.33118845 -1.72264494 3.29549466 0 0 Z " fill="#065DC6" transform="translate(72,318)"/>
<path d="M0 0 C0.66 0.33 1.32 0.66 2 1 C0.6302836 4.99500618 -1.25722422 7.80009492 -4 11 C-4 10.01 -4 9.02 -4 8 C-4.99 8 -5.98 8 -7 8 C-6.34 6.35 -5.68 4.7 -5 3 C-4.67 4.32 -4.34 5.64 -4 7 C-3.34 7 -2.68 7 -2 7 C-2 6.01 -2 5.02 -2 4 C-1.34 4 -0.68 4 0 4 C0 2.68 0 1.36 0 0 Z " fill="#135BAE" transform="translate(189,299)"/>
<path d="M0 0 C1.65 0.33 3.3 0.66 5 1 C5.33 2.32 5.66 3.64 6 5 C4.1875 5.625 4.1875 5.625 2 6 C1.01 5.34 0.02 4.68 -1 4 C-0.67 2.68 -0.34 1.36 0 0 Z " fill="#035FC9" transform="translate(311,207)"/>
<path d="M0 0 C1.32 0.33 2.64 0.66 4 1 C3.67 2.32 3.34 3.64 3 5 C3.66 5 4.32 5 5 5 C5 4.34 5 3.68 5 3 C6.32 3.33 7.64 3.66 9 4 C8.01 4 7.02 4 6 4 C5.34 5.98 4.68 7.96 4 10 C1.16625119 6.79663178 0.4794463 4.21912747 0 0 Z " fill="#145BB1" transform="translate(122,293)"/>
<path d="M0 0 C3.3 0.33 6.6 0.66 10 1 C10 1.66 10 2.32 10 3 C6.42355152 4.2380014 3.66305234 3.74926071 0 3 C0 2.01 0 1.02 0 0 Z " fill="#085FC6" transform="translate(279,259)"/>
<path d="M0 0 C1.26706235 3.80118706 0.57172296 5.3850372 -1 9 C-1.99 9.33 -2.98 9.66 -4 10 C-4 8.35 -4 6.7 -4 5 C-3.34 5 -2.68 5 -2 5 C-1.34 3.35 -0.68 1.7 0 0 Z " fill="#075EC3" transform="translate(82,297)"/>
<path d="M0 0 C0.6875 1.625 0.6875 1.625 1 4 C-0.4375 7.25 -0.4375 7.25 -2 10 C-2.66 9.67 -3.32 9.34 -4 9 C-2.25 2.25 -2.25 2.25 0 0 Z " fill="#055EC3" transform="translate(91,278)"/>
<path d="M0 0 C2.15377564 2.62198774 3.40072174 4.64404172 4 8 C3.34 8 2.68 8 2 8 C1.67 7.34 1.34 6.68 1 6 C0.01 7.485 0.01 7.485 -1 9 C-1.66 7.02 -2.32 5.04 -3 3 C-2.01 3.33 -1.02 3.66 0 4 C0 2.68 0 1.36 0 0 Z " fill="#165AA8" transform="translate(391,269)"/>
<path d="M0 0 C4 4.75 4 4.75 4 7 C3.34 7 2.68 7 2 7 C1.34 7.66 0.68 8.32 0 9 C-0.99 7.02 -1.98 5.04 -3 3 C-2.34 3 -1.68 3 -1 3 C-0.67 3.33 -0.34 3.66 0 4 C0 2.68 0 1.36 0 0 Z " fill="#135CAB" transform="translate(340,246)"/>
<path d="M0 0 C0.99 0.99 1.98 1.98 3 3 C2.34 4.98 1.68 6.96 1 9 C-1.25245881 6.31158141 -2.88213958 4.35358125 -4 1 C-3.34 1 -2.68 1 -2 1 C-2 1.66 -2 2.32 -2 3 C-1.34 3 -0.68 3 0 3 C0 2.01 0 1.02 0 0 Z " fill="#115DAC" transform="translate(173,247)"/>
<path d="M0 0 C1.5 1.375 1.5 1.375 3 3 C3 3.66 3 4.32 3 5 C2.34 5 1.68 5 1 5 C0.67 6.32 0.34 7.64 0 9 C-1.32 6.36 -2.64 3.72 -4 1 C-3.34 1 -2.68 1 -2 1 C-1.67 1.66 -1.34 2.32 -1 3 C-0.67 2.01 -0.34 1.02 0 0 Z " fill="#175BAC" transform="translate(323,218)"/>
<path d="M0 0 C3.3 0 6.6 0 10 0 C10 0.66 10 1.32 10 2 C6.37 2.33 2.74 2.66 -1 3 C-0.67 2.01 -0.34 1.02 0 0 Z " fill="#035FC5" transform="translate(214,217)"/>
<path d="M0 0 C2.475 0.495 2.475 0.495 5 1 C5 1.66 5 2.32 5 3 C5.99 3 6.98 3 8 3 C8 2.34 8 1.68 8 1 C8.99 1.33 9.98 1.66 11 2 C10.34 3.32 9.68 4.64 9 6 C5.06326356 4.68775452 2.77280706 3.08089673 0 0 Z " fill="#135AAE" transform="translate(208,298)"/>
<path d="M0 0 C3.375 -0.125 3.375 -0.125 7 0 C7.66 0.66 8.32 1.32 9 2 C8.67 2.66 8.34 3.32 8 4 C5.23723823 3.47731534 2.6739124 2.89130413 0 2 C0 1.34 0 0.68 0 0 Z " fill="#095CBC" transform="translate(209,227)"/>
<path d="M0 0 C0.33 0.66 0.66 1.32 1 2 C-2.3 2 -5.6 2 -9 2 C-9.33 1.34 -9.66 0.68 -10 0 C-6.26840331 -1.24386556 -3.81984796 -0.77811718 0 0 Z " fill="#065EC6" transform="translate(178,219)"/>
<path d="M0 0 C1.37432457 3.81756824 0.67975039 7.07255329 0 11 C-0.66 11 -1.32 11 -2 11 C-2.05399736 9.54207116 -2.09279177 8.08357288 -2.125 6.625 C-2.15980469 5.40683594 -2.15980469 5.40683594 -2.1953125 4.1640625 C-2 2 -2 2 0 0 Z " fill="#035FC5" transform="translate(319,287)"/>
<path d="M0 0 C0.99 0.99 1.98 1.98 3 3 C2.34 4.32 1.68 5.64 1 7 C0.67 6.01 0.34 5.02 0 4 C-1.65 4.66 -3.3 5.32 -5 6 C-3.35 4.02 -1.7 2.04 0 0 Z " fill="#155DAC" transform="translate(226,253)"/>
<path d="M0 0 C4.875 1.75 4.875 1.75 6 4 C4.35 3.67 2.7 3.34 1 3 C1 3.66 1 4.32 1 5 C-3.875 3.25 -3.875 3.25 -5 1 C-2.525 1.495 -2.525 1.495 0 2 C0 1.34 0 0.68 0 0 Z " fill="#155CA7" transform="translate(307,200)"/>
<path d="M0 0 C3.465 1.98 3.465 1.98 7 4 C5.68 4.33 4.36 4.66 3 5 C3 5.66 3 6.32 3 7 C0.525 6.01 0.525 6.01 -2 5 C-1.34 3.35 -0.68 1.7 0 0 Z " fill="#145AA9" transform="translate(281,182)"/>
<path d="M0 0 C0.33 0 0.66 0 1 0 C1 1.65 1 3.3 1 5 C1.99 4.67 2.98 4.34 4 4 C3.34 5.98 2.68 7.96 2 10 C0.68 8.35 -0.64 6.7 -2 5 C-1.34 3.35 -0.68 1.7 0 0 Z " fill="#185EAB" transform="translate(77,302)"/>
<path d="M0 0 C0.33 0 0.66 0 1 0 C1.24042276 4.08718695 0.42258812 7.17679443 -1 11 C-1.66 10.67 -2.32 10.34 -3 10 C-2.49287967 6.28111761 -1.88391785 3.26545761 0 0 Z " fill="#1554A9" transform="translate(69,319)"/>
<path d="M0 0 C2 2 2 2 2 5 C1.01 5.495 1.01 5.495 0 6 C0 6.99 0 7.98 0 9 C-0.66 9 -1.32 9 -2 9 C-2.25 3.375 -2.25 3.375 0 0 Z " fill="#0A5EC4" transform="translate(75,308)"/>
<path d="M0 0 C2.2477975 2.05233685 3.0022242 3.00667261 4 6 C3.01 6 2.02 6 1 6 C0.67 6.99 0.34 7.98 0 9 C-0.66 7.35 -1.32 5.7 -2 4 C-1.01 4 -0.02 4 1 4 C0.67 2.68 0.34 1.36 0 0 Z " fill="#185CAD" transform="translate(178,255)"/>
<path d="M0 0 C0.99 0 1.98 0 3 0 C2.45276317 3.37462715 1.9451 5.08235 0 8 C-0.66 8 -1.32 8 -2 8 C-1.34 5.36 -0.68 2.72 0 0 Z " fill="#085DC4" transform="translate(135,252)"/>
<path d="M0 0 C-0.33 0.99 -0.66 1.98 -1 3 C-3.31 2.67 -5.62 2.34 -8 2 C-8 1.34 -8 0.68 -8 0 C-5.13822943 -1.43088528 -3.06624227 -0.59991697 0 0 Z " fill="#035FC6" transform="translate(379,247)"/>
<path d="M0 0 C0 1.98 0 3.96 0 6 C-0.99 6.33 -1.98 6.66 -3 7 C-3.33 5.35 -3.66 3.7 -4 2 C-1 0 -1 0 0 0 Z " fill="#0760BE" transform="translate(297,244)"/>
<path d="M0 0 C0.66 0.33 1.32 0.66 2 1 C1.67 3.31 1.34 5.62 1 8 C0.34 8 -0.32 8 -1 8 C-2.2077558 4.37673261 -1.54311128 3.35853631 0 0 Z " fill="#0A5CBA" transform="translate(299,236)"/>
<path d="M0 0 C0.99 0.66 1.98 1.32 3 2 C2.67 3.32 2.34 4.64 2 6 C0.35 5.67 -1.3 5.34 -3 5 C-2.67 4.34 -2.34 3.68 -2 3 C-1.34 3 -0.68 3 0 3 C0 2.01 0 1.02 0 0 Z " fill="#0F55B6" transform="translate(431,324)"/>
<path d="M0 0 C0.66 0 1.32 0 2 0 C1.67 2.31 1.34 4.62 1 7 C0.01 7 -0.98 7 -2 7 C-2 5.68 -2 4.36 -2 3 C-1.34 3 -0.68 3 0 3 C0 2.01 0 1.02 0 0 Z " fill="#075DC2" transform="translate(119,308)"/>
<path d="M0 0 C0.66 0 1.32 0 2 0 C1.67 1.98 1.34 3.96 1 6 C0.01 6.33 -0.98 6.66 -2 7 C-2.125 4.625 -2.125 4.625 -2 2 C-1.34 1.34 -0.68 0.68 0 0 Z " fill="#095CBD" transform="translate(276,286)"/>
<path d="M0 0 C2.0625 0.4375 2.0625 0.4375 4 1 C3.67 3.31 3.34 5.62 3 8 C1 7 1 7 -0.125 3.9375 C-0.41375 2.968125 -0.7025 1.99875 -1 1 C-0.67 0.67 -0.34 0.34 0 0 Z " fill="#045FC6" transform="translate(318,278)"/>
<path d="M0 0 C0.66 0 1.32 0 2 0 C2.33 3.3 2.66 6.6 3 10 C1.00902154 7.01353231 0.05875074 4.40312738 -1 1 C-0.67 0.67 -0.34 0.34 0 0 Z " fill="#075DBE" transform="translate(190,276)"/>
<path d="M0 0 C0.99 0 1.98 0 3 0 C3 2.31 3 4.62 3 7 C2.34 7 1.68 7 1 7 C0.67 4.69 0.34 2.38 0 0 Z " fill="#055DC3" transform="translate(252,305)"/>
<path d="M0 0 C1.9375 0.6875 1.9375 0.6875 4 2 C4.75 4.625 4.75 4.625 5 7 C3.68 6.67 2.36 6.34 1 6 C0.67 4.02 0.34 2.04 0 0 Z " fill="#055FC4" transform="translate(403,294)"/>
<path d="M0 0 C0.66 0 1.32 0 2 0 C2 0.99 2 1.98 2 3 C2.66 3 3.32 3 4 3 C4.33 4.98 4.66 6.96 5 9 C4.34 9 3.68 9 3 9 C0 3.375 0 3.375 0 0 Z " fill="#045DC5" transform="translate(349,267)"/>
<path d="M0 0 C1.32 0.33 2.64 0.66 4 1 C4 2.98 4 4.96 4 7 C3.34 6.67 2.68 6.34 2 6 C2 5.34 2 4.68 2 4 C1.34 4 0.68 4 0 4 C0 2.68 0 1.36 0 0 Z " fill="#0560C2" transform="translate(319,215)"/>
<path d="M0 0 C1.65 0.99 3.3 1.98 5 3 C2.64561267 4.42944945 1.51967567 5.08661261 -1.25 4.625 C-1.8275 4.41875 -2.405 4.2125 -3 4 C-2.01 3.67 -1.02 3.34 0 3 C0 2.01 0 1.02 0 0 Z " fill="#1358B3" transform="translate(248,319)"/>
<path d="M0 0 C1.32 0 2.64 0 4 0 C4 1.65 4 3.3 4 5 C3.34 5 2.68 5 2 5 C1.67 4.34 1.34 3.68 1 3 C0.34 3.99 -0.32 4.98 -1 6 C-1.042721 4.33388095 -1.04063832 2.66617115 -1 1 C-0.67 0.67 -0.34 0.34 0 0 Z " fill="#135AAD" transform="translate(315,302)"/>
<path d="M0 0 C0.928125 0.20625 1.85625 0.4125 2.8125 0.625 C1.125 2.25 1.125 2.25 -1.1875 3.625 C-3.9375 2.8125 -3.9375 2.8125 -6.1875 1.625 C-3.1875 -0.375 -3.1875 -0.375 0 0 Z " fill="#155BB1" transform="translate(206.1875,292.375)"/>
<path d="M0 0 C0.66 0 1.32 0 2 0 C2 0.99 2 1.98 2 3 C2.66 3 3.32 3 4 3 C4 4.32 4 5.64 4 7 C3.01 7 2.02 7 1 7 C0.67 4.69 0.34 2.38 0 0 Z " fill="#095CBF" transform="translate(393,278)"/>
<path d="M0 0 C0.66 0 1.32 0 2 0 C2 0.99 2 1.98 2 3 C2.99 3.33 3.98 3.66 5 4 C5 5.32 5 6.64 5 8 C4.01 7.67 3.02 7.34 2 7 C0.8125 3.4375 0.8125 3.4375 0 0 Z " fill="#0660BF" transform="translate(386,265)"/>
<path d="M0 0 C0 0.66 0 1.32 0 2 C-3.375 2.625 -3.375 2.625 -7 3 C-7.66 2.34 -8.32 1.68 -9 1 C-5.8035914 -0.06546953 -3.34252724 -0.07427838 0 0 Z " fill="#055CC6" transform="translate(112,267)"/>
<path d="M0 0 C1.98 0 3.96 0 6 0 C6 0.66 6 1.32 6 2 C3.69 2.33 1.38 2.66 -1 3 C-0.67 2.01 -0.34 1.02 0 0 Z " fill="#035FC6" transform="translate(373,295)"/>
<path d="M0 0 C0.33 1.32 0.66 2.64 1 4 C0.34 4 -0.32 4 -1 4 C-1.33 5.65 -1.66 7.3 -2 9 C-3.10102197 5.69693408 -2.95067299 4.28414305 -2 1 C-1.34 0.67 -0.68 0.34 0 0 Z " fill="#045DC8" transform="translate(285,267)"/>
<path d="M0 0 C2.475 0.495 2.475 0.495 5 1 C5 1.99 5 2.98 5 4 C3.35 3.67 1.7 3.34 0 3 C0 2.01 0 1.02 0 0 Z " fill="#095CBC" transform="translate(302,198)"/>
</svg>
